# xmcd
#
# Track frame offsets: 
#        150
#        756
#        11277
#        17590
#        33682
#        54364
#        57457
#        96716
#        104325
#        117085
#        120157
#        130138
#        136793
#        151657
#        158407
#        175948
#        177392
#        197933
#        199689
#        215271
#        217323
#
# Disc length: 3024 seconds
#
# Revision: 0
# Processed by: cddbd v1.5.1PL2 Copyright (c) Steve Scherf et al.
# Submitted via: ExactAudioCopy v0.95a5
#
DISCID=130bce15
DTITLE=Willie Nelson - From iTunes
DYEAR=2005
DGENRE=Country
TTITLE0=Intro
TTITLE1=Whiskey River
TTITLE2=What's Good For Me
TTITLE3=Always On My Mind
TTITLE4=Pancho and Lefty
TTITLE5=A Pretty Good Song
TTITLE6=Funny How Time Slips Away - Crazy - Night Life
TTITLE7=Follow Your Instincts
TTITLE8=Beer For My Horses
TTITLE9=What's The Melody
TTITLE10=On The Road Again
TTITLE11=Coming From The Same Place
TTITLE12=Georgia On My Mind
TTITLE13=How I Ended Up With A Classical Guitar
TTITLE14=Texas
TTITLE15=How I Came To Do A Song Written By Elton John's Lyricist
TTITLE16=Mendocino County Line
TTITLE17=All We Have Is Right Now
TTITLE18=Still Is Still Moving To Me
TTITLE19=I've Been Lucky
TTITLE20=Superman
EXTD=
EXTT0=
EXTT1=
EXTT2=
EXTT3=
EXTT4=
EXTT5=
EXTT6=
EXTT7=
EXTT8=
EXTT9=
EXTT10=
EXTT11=
EXTT12=
EXTT13=
EXTT14=
EXTT15=
EXTT16=
EXTT17=
EXTT18=
EXTT19=
EXTT20=
PLAYORDER=
